<svg width="142" height="35" viewBox="0 0 142 35" fill="none" xmlns="http://www.w3.org/2000/svg">
<path d="M17.5024 32.4988C9.18425 32.4988 2.41659 25.7489 2.41659 17.4527C2.41659 9.15774 9.18425 2.40921 17.5024 2.40921C25.8208 2.40921 32.5885 9.15774 32.5885 17.4527C32.5885 25.7489 25.8208 32.4988 17.5024 32.4988ZM17.5024 0.000118256C7.85132 0.000118256 0 7.82944 0 17.4527C0 27.078 7.85132 34.9089 17.5024 34.9089C27.1527 34.9089 35.0035 27.078 35.0035 17.4527C35.0035 7.82944 27.1527 0.000118256 17.5024 0.000118256Z" fill="#F26821"/>
<path d="M21.7847 14.8573C20.4048 13.4811 18.5538 11.6347 17.4645 10.5483C16.9568 11.0554 15.9298 12.0795 14.9596 13.0473C14.2489 13.7559 13.5682 14.4342 13.1443 14.8573C12.4738 15.5271 11.9911 16.3125 11.697 17.1508C10.9466 19.2921 11.4293 21.7662 13.1443 23.4761C13.6532 23.9827 14.2301 24.3768 14.8456 24.6661C14.8826 24.6835 14.9215 24.6996 14.9596 24.7172C15.097 24.7793 15.2368 24.8384 15.3781 24.8879C15.2727 24.8194 15.1721 24.7458 15.0744 24.6661C15.0361 24.6348 14.998 24.5995 14.9596 24.5676C14.9003 24.5152 14.8434 24.463 14.7868 24.4073C13.3095 22.9321 13.3095 20.5417 14.7868 19.0678C14.8391 19.0151 14.8982 18.9573 14.9596 18.8952C15.6529 18.2027 16.9641 16.8955 17.4645 16.3965C17.6783 16.6084 17.9386 16.8677 18.2208 17.1508C18.835 17.7623 19.5567 18.4834 20.1413 19.0678C21.6191 20.5417 21.6191 22.9321 20.1413 24.4073C19.9594 24.5906 19.7609 24.7507 19.5505 24.8879C20.3675 24.5936 21.133 24.1269 21.7847 23.4761C24.171 21.0959 24.171 17.2373 21.7847 14.8573Z" fill="#F26821"/>
<path d="M11.9101 14.4551L12.3979 14.9402L14.7568 12.5761L14.2647 12.0867H14.265C13.3332 11.1574 12.4116 10.2369 11.7599 9.58777C10.8793 10.4657 8.44661 12.8929 7.43994 13.8974C5.05339 16.2757 5.05339 20.1353 7.43994 22.5149C8.09379 23.1667 8.85819 23.6326 9.67383 23.9277C9.46401 23.7891 9.26627 23.6288 9.08356 23.4456C7.60521 21.9714 7.6747 18.849 9.15225 17.3749C9.4938 17.034 10.9901 15.4194 11.9101 14.4551Z" fill="#F26821"/>
<path d="M27.5631 13.8974C26.5578 12.8932 24.1227 10.466 23.2419 9.58777C22.5915 10.2372 21.6688 11.1577 20.7383 12.0867C20.7383 12.0867 20.7383 12.0867 20.7383 12.087L20.2463 12.5761L22.6055 14.9405L23.093 14.4553C24.013 15.4197 25.5082 17.0343 25.8498 17.3752C27.3292 18.849 27.3995 21.9714 25.9201 23.4458C25.7371 23.6288 25.5383 23.7894 25.3309 23.9277C26.1438 23.6329 26.909 23.1667 27.5631 22.5152C29.95 20.1353 29.95 16.2757 27.5631 13.8974Z" fill="#F26821"/>
<path d="M50.7168 2.62858H42.5567V6.53508H49.7945V8.8241H42.5567V14.6516H40.0345V0.338103H50.7168V2.62858Z" fill="#58595B"/>
<path d="M59.3049 2.40097C56.456 2.40097 54.4672 4.67107 54.4672 7.47258C54.4672 10.2736 56.4964 12.5839 59.3462 12.5839C62.1966 12.5839 64.1854 10.3148 64.1854 7.51282C64.1854 4.71228 62.1552 2.40097 59.3049 2.40097ZM59.3049 14.8948C54.8984 14.8948 51.822 11.5619 51.822 7.51282C51.822 3.46474 54.9383 0.0906267 59.3462 0.0906267C63.7552 0.0906267 66.8306 3.42353 66.8306 7.47258C66.8306 11.5206 63.7134 14.8948 59.3049 14.8948Z" fill="#58595B"/>
<path d="M81.4263 8.45502C81.4263 12.7281 79.0081 14.8755 75.2565 14.8755C71.5233 14.8755 69.1455 12.7281 69.1455 8.57721V0.337076H71.6677V8.4749C71.6677 11.1334 73.0416 12.5656 75.2963 12.5656C77.5317 12.5656 78.9056 11.2158 78.9056 8.57721V0.337076H81.4263V8.45502Z" fill="#58595B"/>
<path d="M94.4032 0.338103H96.8841V14.6516H94.7717L86.8576 4.46861V14.6516H84.3773V0.338103H86.7137L94.4032 10.2345V0.338103Z" fill="#58595B"/>
<path d="M105.328 2.62858H102.499V12.3616H105.328C108.342 12.3616 110.31 10.3364 110.31 7.51498C110.31 4.69456 108.342 2.62858 105.328 2.62858ZM105.328 14.6516H99.9765V0.338103H105.328C109.839 0.338103 112.955 3.42617 112.955 7.47474C112.955 11.5228 109.839 14.6516 105.328 14.6516Z" fill="#58595B"/>
<path d="M121.482 2.62858H117.811V7.43401H121.503C123.307 7.43401 124.455 6.49387 124.455 5.02087C124.455 3.44653 123.348 2.62858 121.482 2.62858ZM124.496 14.6516L120.97 9.66242H117.811V14.6516H115.29V0.338103H121.688C124.989 0.338103 127.018 2.07681 127.018 4.87784C127.018 7.24928 125.604 8.68058 123.595 9.23283L127.469 14.6516H124.496Z" fill="#58595B"/>
<path d="M135.772 14.6516H133.229V9.00883L127.531 0.338103H130.504L134.521 6.67715L138.58 0.338103H141.473L135.772 8.94628V14.6516Z" fill="#58595B"/>
<path d="M39.6703 32.3183L42.1754 29.3364C43.7754 30.6067 45.5601 31.2773 47.4381 31.2773C48.6437 31.2773 49.2932 30.8608 49.2932 30.167V30.1219C49.2932 29.4508 48.7599 29.0799 46.5576 28.5713C43.103 27.7849 40.436 26.8137 40.436 23.4842V23.4391C40.436 20.432 42.824 18.258 46.7186 18.258C49.479 18.258 51.6341 18.9993 53.3964 20.4093L51.1474 23.5763C49.6642 22.5373 48.0404 21.9812 46.6038 21.9812C45.5139 21.9812 44.9801 22.4432 44.9801 23.0221V23.0687C44.9801 23.8081 45.5367 24.132 47.7857 24.6401C51.5193 25.4508 53.8373 26.6523 53.8373 29.6816V29.7282C53.8373 33.0349 51.2174 35 47.2767 35C44.4015 35 41.6645 34.0987 39.6703 32.3183Z" fill="#58595B"/>
<path d="M62.9479 26.5851C64.5473 26.5851 65.5216 25.7516 65.5216 24.4808V24.4338C65.5216 23.0461 64.5473 22.3072 62.9245 22.3072H60.8136V26.5851H62.9479ZM56.3172 18.5365H63.2721C67.3753 18.5365 70.0175 20.6412 70.0175 24.2253V24.2714C70.0175 28.0881 67.0739 30.0998 63.0402 30.0998H60.8136V34.7244H56.3172V18.5365Z" fill="#58595B"/>
<path d="M80.0582 28.3413L78.2493 23.74L76.4179 28.3413H80.0582ZM76.1155 18.4217H80.4525L87.3608 34.7244H82.5386L81.3568 31.8337H75.0956L73.9366 34.7244H69.2058L76.1155 18.4217Z" fill="#58595B"/>
<path d="M90.6061 22.4677H85.7363V18.537H99.9719V22.4677H95.1035V34.7244H90.6061V22.4677Z" fill="#58595B"/>
<path d="M102.823 18.5365H107.344V34.7244H102.823V18.5365Z" fill="#58595B"/>
<path d="M120.12 28.3413L118.31 23.74L116.479 28.3413H120.12ZM116.179 18.4217H120.514L127.422 34.7244H122.601L121.417 31.8337H115.158L113.998 34.7244H109.27L116.179 18.4217Z" fill="#58595B"/>
<path d="M129.113 18.5365H133.61V30.7927H141.472V34.7244H129.113V18.5365Z" fill="#58595B"/>
</svg>
